<?xml version="1.0" encoding="UTF-8" standalone="no"?>
<!-- Created with Inkscape (http://www.inkscape.org/) -->

<svg
   width="200mm"
   height="200mm"
   viewBox="0 0 200 200"
   version="1.1"
   id="svg1"
   xml:space="preserve"
   inkscape:version="1.4.2 (2aeb623e1d, 2025-05-12)"
   sodipodi:docname="marker.svg"
   xmlns:inkscape="http://www.inkscape.org/namespaces/inkscape"
   xmlns:sodipodi="http://sodipodi.sourceforge.net/DTD/sodipodi-0.dtd"
   xmlns="http://www.w3.org/2000/svg"
   xmlns:svg="http://www.w3.org/2000/svg"><sodipodi:namedview
     id="namedview1"
     pagecolor="#ffffff"
     bordercolor="#000000"
     borderopacity="0.25"
     inkscape:showpageshadow="2"
     inkscape:pageopacity="0.0"
     inkscape:pagecheckerboard="0"
     inkscape:deskcolor="#d1d1d1"
     inkscape:document-units="mm"
     inkscape:zoom="0.89619809"
     inkscape:cx="663.91572"
     inkscape:cy="482.5942"
     inkscape:window-width="2494"
     inkscape:window-height="1371"
     inkscape:window-x="66"
     inkscape:window-y="32"
     inkscape:window-maximized="1"
     inkscape:current-layer="g129" /><defs
     id="defs1" /><g
     inkscape:label="Layer 1"
     inkscape:groupmode="layer"
     id="layer1"><g
       id="g129"
       transform="matrix(0.26458333,0,0,0.26458333,306.6328,57.184655)">
	
	
	
	
	
	
	
	
	
	
	
	
	
	
	
	
	
	
	
	
	
	
	
	
	
	
	
	
	
	
	
	
	
	
	
	
	
	
	
	
	
	
	
	
	
	
	
	
	
	
	
	
	
	
	
	
	
	
	
	
	
	
	
	
	
	
	
	
	
	
	
	
	
	
	
	
	
	
	
	
	
	
	
	
	
	
	
	
	
	
	
	
	
	
	
	
	
	
	
	
	
	
	
	
	
	
	
	
	
	
	
	
	
	
	
	
	
	
	
	
	
	
	
	
	
	
	
	
	
	<g
   id="g1"
   transform="matrix(2.0568858,0,0,2.0568858,-1058.8185,-117.67815)"><polygon
     points="6.455,135.885 6.61,142.196 135.08,135.885 "
     id="polygon2" /><polygon
     points="6.61,142.196 135.08,135.885 "
     id="polygon3" /><polygon
     points="7.074,148.492 7.847,154.758 135.08,135.885 "
     id="polygon4" /><polygon
     points="7.847,154.758 135.08,135.885 "
     id="polygon5" /><polygon
     points="8.926,160.979 10.31,167.139 135.08,135.885 "
     id="polygon6" /><polygon
     points="10.31,167.139 135.08,135.885 "
     id="polygon7" /><polygon
     points="11.993,173.223 13.973,179.218 135.08,135.885 "
     id="polygon8" /><polygon
     points="13.973,179.218 135.08,135.885 "
     id="polygon9" /><polygon
     points="16.246,185.107 18.804,190.88 135.08,135.885 "
     id="polygon10" /><polygon
     points="18.804,190.88 135.08,135.885 "
     id="polygon11" /><polygon
     points="21.643,196.519 24.754,202.012 135.08,135.885 "
     id="polygon12" /><polygon
     points="24.754,202.012 135.08,135.885 "
     id="polygon13" /><polygon
     points="28.132,207.345 31.767,212.507 135.08,135.885 "
     id="polygon14" /><polygon
     points="31.767,212.507 135.08,135.885 "
     id="polygon15" /><polygon
     points="35.651,217.483 39.775,222.264 135.08,135.885 "
     id="polygon16" /><polygon
     points="39.775,222.264 135.08,135.885 "
     id="polygon17" /><polygon
     points="44.128,226.837 48.701,231.189 135.08,135.885 "
     id="polygon18" /><polygon
     points="48.701,231.189 135.08,135.885 "
     id="polygon19" /><polygon
     points="53.481,235.313 58.458,239.197 135.08,135.885 "
     id="polygon20" /><polygon
     points="58.458,239.197 135.08,135.885 "
     id="polygon21" /><polygon
     points="63.62,242.833 68.953,246.21 135.08,135.885 "
     id="polygon22" /><polygon
     points="68.953,246.21 135.08,135.885 "
     id="polygon23" /><polygon
     points="74.446,249.322 80.085,252.16 135.08,135.885 "
     id="polygon24" /><polygon
     points="80.085,252.16 135.08,135.885 "
     id="polygon25" /><polygon
     points="85.857,254.719 91.747,256.991 135.08,135.885 "
     id="polygon26" /><polygon
     points="91.747,256.991 135.08,135.885 "
     id="polygon27" /><polygon
     points="97.742,258.972 103.826,260.655 135.08,135.885 "
     id="polygon28" /><polygon
     points="103.826,260.655 135.08,135.885 "
     id="polygon29" /><polygon
     points="109.986,262.039 116.207,263.118 135.08,135.885 "
     id="polygon30" /><polygon
     points="116.207,263.118 135.08,135.885 "
     id="polygon31" /><polygon
     points="122.472,263.891 128.769,264.354 135.08,135.885 "
     id="polygon32" /><polygon
     points="128.769,264.354 135.08,135.885 "
     id="polygon33" /><polygon
     points="135.08,264.51 141.39,264.354 135.08,135.885 "
     id="polygon34" /><polygon
     points="141.39,264.354 135.08,135.885 "
     id="polygon35" /><polygon
     points="147.687,263.891 153.953,263.118 135.08,135.885 "
     id="polygon36" /><polygon
     points="153.953,263.118 135.08,135.885 "
     id="polygon37" /><polygon
     points="160.173,262.039 166.333,260.655 135.08,135.885 "
     id="polygon38" /><polygon
     points="166.333,260.655 135.08,135.885 "
     id="polygon39" /><polygon
     points="172.417,258.972 178.412,256.991 135.08,135.885 "
     id="polygon40" /><polygon
     points="178.412,256.991 135.08,135.885 "
     id="polygon41" /><polygon
     points="184.302,254.719 190.074,252.16 135.08,135.885 "
     id="polygon42" /><polygon
     points="190.074,252.16 135.08,135.885 "
     id="polygon43" /><polygon
     points="195.712,249.322 201.207,246.21 135.08,135.885 "
     id="polygon44" /><polygon
     points="201.207,246.21 135.08,135.885 "
     id="polygon45" /><polygon
     points="206.541,242.833 211.701,239.197 135.08,135.885 "
     id="polygon46" /><polygon
     points="211.701,239.197 135.08,135.885 "
     id="polygon47" /><polygon
     points="216.677,235.313 221.458,231.189 135.08,135.885 "
     id="polygon48" /><polygon
     points="221.458,231.189 135.08,135.885 "
     id="polygon49" /><polygon
     points="226.031,226.837 230.384,222.264 135.08,135.885 "
     id="polygon50" /><polygon
     points="230.384,222.264 135.08,135.885 "
     id="polygon51" /><polygon
     points="234.507,217.483 238.392,212.507 135.08,135.885 "
     id="polygon52" /><polygon
     points="238.392,212.507 135.08,135.885 "
     id="polygon53" /><polygon
     points="242.027,207.345 245.404,202.012 135.08,135.885 "
     id="polygon54" /><polygon
     points="245.404,202.012 135.08,135.885 "
     id="polygon55" /><polygon
     points="248.517,196.519 251.355,190.88 135.08,135.885 "
     id="polygon56" /><polygon
     points="251.355,190.88 135.08,135.885 "
     id="polygon57" /><polygon
     points="253.914,185.107 256.185,179.218 135.08,135.885 "
     id="polygon58" /><polygon
     points="256.185,179.218 135.08,135.885 "
     id="polygon59" /><polygon
     points="258.166,173.223 259.849,167.139 135.08,135.885 "
     id="polygon60" /><polygon
     points="259.849,167.139 135.08,135.885 "
     id="polygon61" /><polygon
     points="261.234,160.979 262.312,154.758 135.08,135.885 "
     id="polygon62" /><polygon
     points="262.312,154.758 135.08,135.885 "
     id="polygon63" /><polygon
     points="263.085,148.492 263.55,142.196 135.08,135.885 "
     id="polygon64" /><polygon
     points="263.55,142.196 135.08,135.885 "
     id="polygon65" /><polygon
     points="263.705,135.885 263.55,129.574 135.08,135.885 "
     id="polygon66" /><polygon
     points="263.55,129.574 135.08,135.885 "
     id="polygon67" /><polygon
     points="263.085,123.277 262.312,117.012 135.08,135.885 "
     id="polygon68" /><polygon
     points="262.312,117.012 135.08,135.885 "
     id="polygon69" /><polygon
     points="261.234,110.792 259.849,104.632 135.08,135.885 "
     id="polygon70" /><polygon
     points="259.849,104.632 135.08,135.885 "
     id="polygon71" /><polygon
     points="258.166,98.547 256.185,92.552 135.08,135.885 "
     id="polygon72" /><polygon
     points="256.185,92.552 135.08,135.885 "
     id="polygon73" /><polygon
     points="253.914,86.663 251.355,80.891 135.08,135.885 "
     id="polygon74" /><polygon
     points="251.355,80.891 135.08,135.885 "
     id="polygon75" /><polygon
     points="248.517,75.251 245.404,69.758 135.08,135.885 "
     id="polygon76" /><polygon
     points="245.404,69.758 135.08,135.885 "
     id="polygon77" /><polygon
     points="242.027,64.425 238.392,59.264 135.08,135.885 "
     id="polygon78" /><polygon
     points="238.392,59.264 135.08,135.885 "
     id="polygon79" /><polygon
     points="234.507,54.287 230.384,49.506 135.08,135.885 "
     id="polygon80" /><polygon
     points="230.384,49.506 135.08,135.885 "
     id="polygon81" /><polygon
     points="226.031,44.933 221.458,40.58 135.08,135.885 "
     id="polygon82" /><polygon
     points="221.458,40.58 135.08,135.885 "
     id="polygon83" /><polygon
     points="216.677,36.457 211.701,32.572 135.08,135.885 "
     id="polygon84" /><polygon
     points="211.701,32.572 135.08,135.885 "
     id="polygon85" /><polygon
     points="206.541,28.938 201.207,25.56 135.08,135.885 "
     id="polygon86" /><polygon
     points="201.207,25.56 135.08,135.885 "
     id="polygon87" /><polygon
     points="195.712,22.447 190.074,19.609 135.08,135.885 "
     id="polygon88" /><polygon
     points="190.074,19.609 135.08,135.885 "
     id="polygon89" /><polygon
     points="184.302,17.051 178.412,14.779 135.08,135.885 "
     id="polygon90" /><polygon
     points="178.412,14.779 135.08,135.885 "
     id="polygon91" /><polygon
     points="172.417,12.799 166.333,11.115 135.08,135.885 "
     id="polygon92" /><polygon
     points="166.333,11.115 135.08,135.885 "
     id="polygon93" /><polygon
     points="160.173,9.731 153.953,8.652 135.08,135.885 "
     id="polygon94" /><polygon
     points="153.953,8.652 135.08,135.885 "
     id="polygon95" /><polygon
     points="147.687,7.879 141.39,7.415 135.08,135.885 "
     id="polygon96" /><polygon
     points="141.39,7.415 135.08,135.885 "
     id="polygon97" /><polygon
     points="135.08,7.26 128.769,7.415 135.08,135.885 "
     id="polygon98" /><polygon
     points="128.769,7.415 135.08,135.885 "
     id="polygon99" /><polygon
     points="122.472,7.879 116.207,8.652 135.08,135.885 "
     id="polygon100" /><polygon
     points="116.207,8.652 135.08,135.885 "
     id="polygon101" /><polygon
     points="109.986,9.731 103.826,11.115 135.08,135.885 "
     id="polygon102" /><polygon
     points="103.826,11.115 135.08,135.885 "
     id="polygon103" /><polygon
     points="97.742,12.799 91.747,14.779 135.08,135.885 "
     id="polygon104" /><polygon
     points="91.747,14.779 135.08,135.885 "
     id="polygon105" /><polygon
     points="85.857,17.051 80.085,19.609 135.08,135.885 "
     id="polygon106" /><polygon
     points="80.085,19.609 135.08,135.885 "
     id="polygon107" /><polygon
     points="74.446,22.447 68.953,25.56 135.08,135.885 "
     id="polygon108" /><polygon
     points="68.953,25.56 135.08,135.885 "
     id="polygon109" /><polygon
     points="63.62,28.938 58.458,32.572 135.08,135.885 "
     id="polygon110" /><polygon
     points="58.458,32.572 135.08,135.885 "
     id="polygon111" /><polygon
     points="53.481,36.457 48.701,40.58 135.08,135.885 "
     id="polygon112" /><polygon
     points="48.701,40.58 135.08,135.885 "
     id="polygon113" /><polygon
     points="44.128,44.933 39.775,49.506 135.08,135.885 "
     id="polygon114" /><polygon
     points="39.775,49.506 135.08,135.885 "
     id="polygon115" /><polygon
     points="35.651,54.287 31.767,59.264 135.08,135.885 "
     id="polygon116" /><polygon
     points="31.767,59.264 135.08,135.885 "
     id="polygon117" /><polygon
     points="28.132,64.425 24.754,69.758 135.08,135.885 "
     id="polygon118" /><polygon
     points="24.754,69.758 135.08,135.885 "
     id="polygon119" /><polygon
     points="21.643,75.251 18.804,80.891 135.08,135.885 "
     id="polygon120" /><polygon
     points="18.804,80.891 135.08,135.885 "
     id="polygon121" /><polygon
     points="16.246,86.663 13.973,92.552 135.08,135.885 "
     id="polygon122" /><polygon
     points="13.973,92.552 135.08,135.885 "
     id="polygon123" /><polygon
     points="11.993,98.547 10.31,104.632 135.08,135.885 "
     id="polygon124" /><polygon
     points="10.31,104.632 135.08,135.885 "
     id="polygon125" /><polygon
     points="8.926,110.792 7.847,117.012 135.08,135.885 "
     id="polygon126" /><polygon
     points="7.847,117.012 135.08,135.885 "
     id="polygon127" /><polygon
     points="7.074,123.277 6.61,129.574 135.08,135.885 "
     id="polygon128" /><polygon
     points="6.61,129.574 135.08,135.885 "
     id="polygon129" /></g>
<g
   style="shape-rendering:crispEdges"
   id="g2"
   transform="matrix(-18.897638,0,0,-18.897638,-1045.5413,-102.74515)"><rect
     x="0"
     y="0"
     width="6"
     height="6"
     fill="#000000"
     id="rect1" /><rect
     width="1"
     height="1"
     x="1"
     y="1"
     fill="#ffffff"
     id="rect2" /><rect
     width="1.5"
     height="1"
     x="3"
     y="1"
     fill="#ffffff"
     id="rect3" /><rect
     width="1"
     height="1"
     x="4"
     y="1"
     fill="#ffffff"
     id="rect4" /><rect
     width="1"
     height="1.5"
     x="4"
     y="1"
     fill="#ffffff"
     id="rect5" /><rect
     width="1"
     height="1"
     x="2"
     y="2"
     fill="#ffffff"
     id="rect6" /><rect
     width="1"
     height="1"
     x="4"
     y="2"
     fill="#ffffff"
     id="rect7" /><rect
     width="1"
     height="1.5"
     x="4"
     y="2"
     fill="#ffffff"
     id="rect8" /><rect
     width="1.5"
     height="1"
     x="3"
     y="3"
     fill="#ffffff"
     id="rect9" /><rect
     width="1"
     height="1.5"
     x="3"
     y="3"
     fill="#ffffff"
     id="rect10" /><rect
     width="1"
     height="1"
     x="4"
     y="3"
     fill="#ffffff"
     id="rect11" /><rect
     width="1"
     height="1"
     x="3"
     y="4"
     fill="#ffffff"
     id="rect12" /></g><g
   style="shape-rendering:crispEdges"
   id="g24"
   transform="matrix(0,-18.897638,18.897638,0,-516.40744,-102.74515)"><rect
     x="0"
     y="0"
     width="6"
     height="6"
     fill="#000000"
     id="rect13" /><rect
     width="1"
     height="1"
     x="1"
     y="1"
     fill="#ffffff"
     id="rect14" /><rect
     width="1.5"
     height="1"
     x="3"
     y="1"
     fill="#ffffff"
     id="rect15" /><rect
     width="1"
     height="1"
     x="4"
     y="1"
     fill="#ffffff"
     id="rect16" /><rect
     width="1"
     height="1.5"
     x="4"
     y="1"
     fill="#ffffff"
     id="rect17" /><rect
     width="1"
     height="1"
     x="2"
     y="2"
     fill="#ffffff"
     id="rect18" /><rect
     width="1"
     height="1"
     x="4"
     y="2"
     fill="#ffffff"
     id="rect19" /><rect
     width="1"
     height="1.5"
     x="4"
     y="2"
     fill="#ffffff"
     id="rect20" /><rect
     width="1.5"
     height="1"
     x="3"
     y="3"
     fill="#ffffff"
     id="rect21" /><rect
     width="1"
     height="1.5"
     x="3"
     y="3"
     fill="#ffffff"
     id="rect22" /><rect
     width="1"
     height="1"
     x="4"
     y="3"
     fill="#ffffff"
     id="rect23" /><rect
     width="1"
     height="1"
     x="3"
     y="4"
     fill="#ffffff"
     id="rect24" /></g><g
   style="shape-rendering:crispEdges"
   id="g36"
   transform="matrix(18.897638,0,0,18.897638,-516.40744,426.38871)"><rect
     x="0"
     y="0"
     width="6"
     height="6"
     fill="#000000"
     id="rect25" /><rect
     width="1"
     height="1"
     x="1"
     y="1"
     fill="#ffffff"
     id="rect26" /><rect
     width="1.5"
     height="1"
     x="3"
     y="1"
     fill="#ffffff"
     id="rect27" /><rect
     width="1"
     height="1"
     x="4"
     y="1"
     fill="#ffffff"
     id="rect28" /><rect
     width="1"
     height="1.5"
     x="4"
     y="1"
     fill="#ffffff"
     id="rect29" /><rect
     width="1"
     height="1"
     x="2"
     y="2"
     fill="#ffffff"
     id="rect30" /><rect
     width="1"
     height="1"
     x="4"
     y="2"
     fill="#ffffff"
     id="rect31" /><rect
     width="1"
     height="1.5"
     x="4"
     y="2"
     fill="#ffffff"
     id="rect32" /><rect
     width="1.5"
     height="1"
     x="3"
     y="3"
     fill="#ffffff"
     id="rect33" /><rect
     width="1"
     height="1.5"
     x="3"
     y="3"
     fill="#ffffff"
     id="rect34" /><rect
     width="1"
     height="1"
     x="4"
     y="3"
     fill="#ffffff"
     id="rect35" /><rect
     width="1"
     height="1"
     x="3"
     y="4"
     fill="#ffffff"
     id="rect36" /></g><g
   style="shape-rendering:crispEdges"
   id="g48"
   transform="matrix(0,18.897638,-18.897638,0,-1045.5413,426.38871)"><rect
     x="0"
     y="0"
     width="6"
     height="6"
     fill="#000000"
     id="rect37" /><rect
     width="1"
     height="1"
     x="1"
     y="1"
     fill="#ffffff"
     id="rect38" /><rect
     width="1.5"
     height="1"
     x="3"
     y="1"
     fill="#ffffff"
     id="rect39" /><rect
     width="1"
     height="1"
     x="4"
     y="1"
     fill="#ffffff"
     id="rect40" /><rect
     width="1"
     height="1.5"
     x="4"
     y="1"
     fill="#ffffff"
     id="rect41" /><rect
     width="1"
     height="1"
     x="2"
     y="2"
     fill="#ffffff"
     id="rect42" /><rect
     width="1"
     height="1"
     x="4"
     y="2"
     fill="#ffffff"
     id="rect43" /><rect
     width="1"
     height="1.5"
     x="4"
     y="2"
     fill="#ffffff"
     id="rect44" /><rect
     width="1.5"
     height="1"
     x="3"
     y="3"
     fill="#ffffff"
     id="rect45" /><rect
     width="1"
     height="1.5"
     x="3"
     y="3"
     fill="#ffffff"
     id="rect46" /><rect
     width="1"
     height="1"
     x="4"
     y="3"
     fill="#ffffff"
     id="rect47" /><rect
     width="1"
     height="1"
     x="3"
     y="4"
     fill="#ffffff"
     id="rect48" /></g></g></g></svg>
